<svg width="500" height="500" viewBox="0 0 500 500" fill="none" xmlns="http://www.w3.org/2000/svg">
<rect width="500" height="500" rx="125" fill="#0EA5E9"/>
<path fill-rule="evenodd" clip-rule="evenodd" d="M250 282.782C251.483 281.639 252.951 280.482 254.406 279.308C299.901 242.61 334.992 188.142 372.423 100L425 100V400H372.462C325.41 388.83 285.222 374.18 250 353.521C214.778 374.18 174.59 388.83 127.538 400H75V100L127.577 100C165.008 188.142 200.099 242.61 245.594 279.308C247.049 280.482 248.517 281.639 250 282.782ZM372.5 338.422C346.322 331.647 323.407 323.779 302.981 314.428C329.156 290.434 351.721 261.617 372.5 227.132V338.422ZM127.5 338.422C153.677 331.647 176.593 323.779 197.019 314.428C170.844 290.434 148.279 261.617 127.5 227.132V338.422Z" fill="#FAFAFA"/>
</svg>
